<svg width="580" height="180" viewBox="0 0 580 180" fill="none" xmlns="http://www.w3.org/2000/svg">
<path d="M67.0676 19.0309C24.3873 27.6849 30.6812 54.5323 32.7463 66.7265C26.8785 70.0702 15.7725 77.6032 18.29 80.9861C21.4369 85.2149 37.9584 86.0017 60.872 72.6271C71.8862 70.7585 74.8366 70.7585 87.7194 70.7585L87.943 70.7758C111.299 72.5798 148.7 75.4684 151.445 102.916C154.198 130.452 121.844 143.04 112.796 143.728C103.749 144.417 117.025 151.792 143.577 134.189C177.997 108.719 155.002 66.4315 148.691 55.0238C141.293 41.6495 143.577 34.3723 121.254 22.4728C109.256 17.8508 86.6376 15.0627 67.0676 19.0309Z" fill="#55CCFF"/>
<path d="M26.9442 89.2469C16.874 89.0896 17.7656 81.6745 17.8967 80.0028C19.7653 86.8435 42.6789 80.0028 61.3638 72.4304C92.538 64.4647 130.99 75.6756 140.725 82.363C174.834 112.638 138.695 144.288 111.95 145.497C111.924 145.498 111.898 145.497 111.873 145.495L103.334 144.641C103.162 144.624 102.988 144.695 102.873 144.824C83.6788 166.319 79.7821 166.844 74.4406 170.22C74.378 170.259 74.304 170.287 74.2309 170.299C64.5574 171.822 64.5097 170.699 64.4166 168.511L64.4161 168.499C64.4137 168.442 64.4206 168.382 64.4366 168.327C66.0454 162.811 71.9053 163.223 75.6232 148.449C77.4205 141.307 73.6893 130.78 71.2962 126.322C67.0676 120.323 77.3519 119.949 79.7537 123.666C83.884 130.059 86.2441 132.025 89.7845 134.582C102.151 143.514 117.455 133.933 124.457 129.397C124.486 129.379 124.512 129.358 124.537 129.334C129.696 124.36 130.49 121.604 129.72 114.501C129.714 114.45 129.701 114.397 129.681 114.35C122.508 97.1057 113.963 94.0586 103.946 89.0501C81.2288 80.2978 73.7876 82.9202 63.724 82.363C51.0379 82.953 40.712 87.8701 26.9442 89.2469Z" fill="#D9D9D9"/>
<path d="M95.6444 106.267C70.8021 96.6829 71.7394 95.0594 68.0836 82.69C68.018 82.4683 68.1696 82.235 68.4005 82.2209C74.5457 81.8456 86.0778 81.6259 86.6032 83.5663C86.6088 83.5875 86.6153 83.6091 86.6236 83.6294L95.789 106.131C95.8451 106.269 95.7832 106.32 95.6444 106.267Z" fill="#7BD7FF"/>
<path d="M147.019 52.2704C138.955 37.814 126.958 21.686 87.916 16.9657C105.421 18.4408 115.648 12.7387 128.924 10.3785C139.091 8.57122 145.938 8.51002 155.084 10.3785C164.229 12.247 156.755 17.7542 153.018 19.6227L152.981 19.6414C149.224 21.5195 140.648 25.8064 147.019 52.2704Z" fill="#7BD7FF"/>
<path d="M87.8177 69.5754C99.002 78.4348 104.827 85.424 139.545 80.9942C123.701 66.13 123.118 63.2754 87.8177 69.5754Z" fill="#7BD7FF"/>
<path d="M53.9881 66.4316C57.8986 66.4316 61.0687 63.2615 61.0687 59.351C61.0687 55.4405 57.8986 52.2704 53.9881 52.2704C50.0776 52.2704 46.9075 55.4405 46.9075 59.351C46.9075 63.2615 50.0776 66.4316 53.9881 66.4316Z" fill="#333333"/>
<path d="M54.7749 61.3179C56.5129 61.3179 57.9218 59.909 57.9218 58.171C57.9218 56.433 56.5129 55.024 54.7749 55.024C53.0369 55.024 51.628 56.433 51.628 58.171C51.628 59.909 53.0369 61.3179 54.7749 61.3179Z" fill="#ECECEC"/>
<path d="M261.062 85C261.062 76.4167 258.833 70.2292 254.375 66.4375C251.625 64.1458 248.25 63 244.25 63C238.042 63 233.396 65.7292 230.312 71.1875C228.188 75.0208 227.125 79.6458 227.125 85.0625C227.125 93.5625 229.354 99.6667 233.812 103.375C236.604 105.667 240.021 106.812 244.062 106.812C250.479 106.812 255.188 103.979 258.188 98.3125C260.104 94.6458 261.062 90.2083 261.062 85ZM234.188 85C234.188 78.4167 235.667 73.75 238.625 71C240.208 69.5417 242.062 68.8125 244.188 68.8125C248.521 68.8125 251.458 71.5 253 76.875C253.667 79.25 254 81.9792 254 85.0625C254 91.8958 252.417 96.6042 249.25 99.1875C247.75 100.396 246.021 101 244.062 101C239.646 101 236.688 98.3125 235.188 92.9375C234.521 90.6458 234.188 88 234.188 85ZM278.5 101.5C276.917 101.5 275.396 101.146 273.938 100.438V88.0625C273.938 83.9792 275.125 81.25 277.5 79.875C278.25 79.4167 279.083 79.1875 280 79.1875C282.292 79.1875 284 80.5 285.125 83.125C285.792 84.75 286.125 86.6667 286.125 88.875C286.125 95.3333 284.521 99.3333 281.312 100.875C280.438 101.292 279.5 101.5 278.5 101.5ZM273.875 118.562V106.188C275.625 106.604 277.208 106.812 278.625 106.812C283.833 106.812 287.708 104.562 290.25 100.062C291.958 97.0208 292.812 93.2708 292.812 88.8125C292.812 82.9792 291.146 78.75 287.812 76.125C285.979 74.6667 283.896 73.9375 281.562 73.9375C278.271 73.9792 275.625 75.4375 273.625 78.3125L273.438 74.75H267.438L267.375 118.562H273.875ZM321.875 103.625L319.938 99.25C317.104 100.75 314.438 101.5 311.938 101.5C308.229 101.5 305.729 99.6458 304.438 95.9375C304.062 94.7292 303.812 93.4167 303.688 92H322.5V90C322.5 79.625 318.708 74.2708 311.125 73.9375C310.833 73.9375 310.562 73.9375 310.312 73.9375C305.771 73.9375 302.271 75.7708 299.812 79.4375C297.896 82.2708 296.938 85.8333 296.938 90.125C296.938 96.7917 299.021 101.562 303.188 104.438C305.521 106.021 308.229 106.812 311.312 106.812C315.021 106.771 318.542 105.708 321.875 103.625ZM310.25 79C313.167 79 314.979 80.6667 315.688 84C315.854 84.9583 315.938 85.9792 315.938 87.0625L303.812 87.1875C304.438 82.5208 306.167 79.8333 309 79.125C309.417 79.0417 309.833 79 310.25 79ZM354.5 101.688C353.083 101.896 352.292 101.375 352.125 100.125C352.083 99.8333 352.062 99.5208 352.062 99.1875V84.75C352.062 79.75 350.396 76.4375 347.062 74.8125C345.812 74.2292 344.438 73.9375 342.938 73.9375C339.271 73.9792 336.417 75.6875 334.375 79.0625L334.25 74.75H328V106H334.5V89.4375C334.5 84.5208 335.812 81.3125 338.438 79.8125C339.271 79.3542 340.125 79.125 341 79.125C343.292 79.125 344.729 80.4583 345.312 83.125C345.479 83.8333 345.562 84.6042 345.562 85.4375V99.625C345.646 104.333 347.812 106.708 352.062 106.75C352.854 106.75 353.75 106.646 354.75 106.438L354.5 101.688ZM360.562 63.8125V106C367.688 106.125 371.479 106.188 371.938 106.188C379.896 106.312 385.333 103.021 388.25 96.3125C389.625 93.1042 390.312 89.3333 390.312 85C390.312 75.3333 387.417 68.8958 381.625 65.6875C378.958 64.2708 375.792 63.5833 372.125 63.625C370.625 63.6667 368.229 63.7083 364.938 63.75H364.875H364.812H364.75H364.688H364.625H364.562H364.5H364.438H364.375H364.312H364.25H364.188H364.125H364.062H364H363.938H363.875H363.812H363.75H363.688H363.625H363.562H363.5H363.438H363.375H363.312H363.25H363.188H363.125H363.062H363H362.938H362.875H362.812H362.75H362.688H362.625H362.562L362.5 63.8125H362.438H362.375H362.312H362.25H362.188H362.125H362.062H362H361.938H361.875H361.812H361.75H361.688H361.625H361.562H361.5H361.438H361.375H361.312H361.25H361.188H361.125H361.062H361H360.938H360.875H360.812H360.75H360.688H360.562ZM372 100.5C369.917 100.5 368.312 100.479 367.188 100.438V69.375C368.354 69.3333 370 69.3125 372.125 69.3125C377.917 69.3125 381.479 72.6667 382.812 79.375C383.146 81.125 383.312 83.0208 383.312 85.0625C383.229 95.3125 379.458 100.458 372 100.5ZM408 101.5C404.833 101.5 402.708 99.5833 401.625 95.75C401.208 94.1667 401 92.375 401 90.375C401 85 402.396 81.5417 405.188 80C406.104 79.5 407.083 79.25 408.125 79.25C411.375 79.25 413.5 81.2917 414.5 85.375C414.875 86.875 415.062 88.5833 415.062 90.5C415.062 96.0417 413.604 99.5208 410.688 100.938C409.854 101.312 408.958 101.5 408 101.5ZM408.25 73.9375C402.875 73.9375 398.958 76.1875 396.5 80.6875C395.042 83.4375 394.312 86.7083 394.312 90.5C394.312 97.4167 396.375 102.208 400.5 104.875C402.542 106.167 404.958 106.812 407.75 106.812C413.5 106.812 417.542 104.396 419.875 99.5625C421.083 96.9792 421.688 93.9167 421.688 90.375C421.688 83.1667 419.542 78.2708 415.25 75.6875C413.25 74.5208 410.917 73.9375 408.25 73.9375ZM435.25 106.75C436.833 106.75 438.458 106.5 440.125 106L438.875 101.125C438.125 101.375 437.438 101.5 436.812 101.5C435.146 101.417 434.292 100.25 434.25 98V60.6875H427.75V98.625C427.75 103.583 429.854 106.271 434.062 106.688C434.479 106.729 434.875 106.75 435.25 106.75ZM455.625 101.5C454.042 101.5 452.521 101.146 451.062 100.438V88.0625C451.062 83.9792 452.25 81.25 454.625 79.875C455.375 79.4167 456.208 79.1875 457.125 79.1875C459.417 79.1875 461.125 80.5 462.25 83.125C462.917 84.75 463.25 86.6667 463.25 88.875C463.25 95.3333 461.646 99.3333 458.438 100.875C457.562 101.292 456.625 101.5 455.625 101.5ZM451 118.562V106.188C452.75 106.604 454.333 106.812 455.75 106.812C460.958 106.812 464.833 104.562 467.375 100.062C469.083 97.0208 469.938 93.2708 469.938 88.8125C469.938 82.9792 468.271 78.75 464.938 76.125C463.104 74.6667 461.021 73.9375 458.688 73.9375C455.396 73.9792 452.75 75.4375 450.75 78.3125L450.562 74.75H444.562L444.5 118.562H451ZM502.625 101.688C501.25 101.854 500.458 101.375 500.25 100.25C500.208 99.9167 500.188 99.5625 500.188 99.1875V84.875C500.188 79.8333 498.521 76.4792 495.188 74.8125C493.938 74.2292 492.562 73.9375 491.062 73.9375C487.604 73.9792 484.771 75.5208 482.562 78.5625L482.625 60.6875H476.125V106H482.625V89.25C482.625 84.375 483.917 81.2083 486.5 79.75C487.292 79.3333 488.125 79.125 489 79.125C491.292 79.125 492.771 80.4167 493.438 83C493.604 83.7917 493.688 84.625 493.688 85.5V99.625C493.688 104.833 496.229 107.208 501.312 106.75C501.854 106.667 502.375 106.583 502.875 106.5L502.625 101.688ZM515.062 106V74.75H508.562V106H515.062ZM516.062 65.625C516.062 63.5 515.188 62.1042 513.438 61.4375C512.896 61.2708 512.375 61.1875 511.875 61.1875C510 61.1875 508.729 62.0208 508.062 63.6875C507.812 64.3125 507.688 64.9583 507.688 65.625C507.688 67.875 508.562 69.3333 510.312 70C510.812 70.1667 511.312 70.25 511.812 70.25C513.688 70.25 514.979 69.4167 515.688 67.75C515.938 67.0833 516.062 66.375 516.062 65.625ZM549.688 101.688C548.271 101.896 547.479 101.375 547.312 100.125C547.271 99.8333 547.25 99.5208 547.25 99.1875V84.75C547.25 79.75 545.583 76.4375 542.25 74.8125C541 74.2292 539.625 73.9375 538.125 73.9375C534.458 73.9792 531.604 75.6875 529.562 79.0625L529.438 74.75H523.188V106H529.688V89.4375C529.688 84.5208 531 81.3125 533.625 79.8125C534.458 79.3542 535.312 79.125 536.188 79.125C538.479 79.125 539.917 80.4583 540.5 83.125C540.667 83.8333 540.75 84.6042 540.75 85.4375V99.625C540.833 104.333 543 106.708 547.25 106.75C548.042 106.75 548.938 106.646 549.938 106.438L549.688 101.688Z" fill="#55CCFF"/>
</svg>
