<?xml version="1.0" encoding="UTF-8" standalone="no"?>
<svg
   width="1000"
   height="1000"
   viewBox="0 0 1000 1000"
   fill="none"
   version="1.1"
   id="svg20"
   sodipodi:docname="OpenDolphin Symbol.svg"
   inkscape:version="1.2.1 (9c6d41e410, 2022-07-14, custom)"
   xmlns:inkscape="http://www.inkscape.org/namespaces/inkscape"
   xmlns:sodipodi="http://sodipodi.sourceforge.net/DTD/sodipodi-0.dtd"
   xmlns="http://www.w3.org/2000/svg"
   xmlns:svg="http://www.w3.org/2000/svg">
  <defs
     id="defs24" />
  <sodipodi:namedview
     id="namedview22"
     pagecolor="#ffffff"
     bordercolor="#666666"
     borderopacity="1.0"
     inkscape:showpageshadow="2"
     inkscape:pageopacity="0.0"
     inkscape:pagecheckerboard="0"
     inkscape:deskcolor="#d1d1d1"
     showgrid="false"
     inkscape:zoom="0.236"
     inkscape:cx="497.88136"
     inkscape:cy="500"
     inkscape:window-width="1894"
     inkscape:window-height="1129"
     inkscape:window-x="0"
     inkscape:window-y="0"
     inkscape:window-maximized="1"
     inkscape:current-layer="svg20" />
  <path
     d="M372.598 105.727C135.485 153.805 170.451 302.957 181.924 370.703C149.325 389.279 87.6251 431.129 101.611 449.923C119.094 473.416 210.88 477.787 338.178 403.484C399.368 393.103 415.759 393.103 487.33 393.103L488.572 393.199C618.326 403.221 826.111 419.269 841.36 571.758C856.657 724.734 676.911 794.665 626.647 798.49C576.384 802.314 650.14 843.29 797.652 745.495C988.872 603.992 861.121 369.064 826.062 305.688C784.959 231.386 797.652 190.957 673.633 124.849C606.979 99.1709 481.32 83.6819 372.598 105.727Z"
     fill="#55CCFF"
     id="path6" />
  <path
     d="M149.69 495.816C93.7442 494.942 98.6977 453.747 99.4261 444.46C109.807 482.464 237.105 444.46 340.91 402.391C514.1 358.137 727.721 420.42 781.808 457.572C971.299 625.765 770.527 801.6 621.943 808.315C621.8 808.321 621.658 808.317 621.515 808.303L574.079 803.559C573.124 803.464 572.155 803.86 571.516 804.576C464.882 923.997 443.234 926.912 413.559 945.665C413.211 945.885 412.8 946.039 412.394 946.103C358.652 954.568 358.387 948.329 357.87 936.17L357.867 936.106C357.854 935.788 357.892 935.457 357.981 935.152C366.919 904.506 399.474 906.795 420.129 824.714C430.114 785.039 409.385 726.555 396.09 701.787C372.598 668.46 429.733 666.386 443.076 687.036C466.022 722.548 479.134 733.475 498.803 747.68C567.504 797.298 652.53 744.07 691.428 718.875C691.589 718.771 691.735 718.653 691.873 718.521C720.534 690.887 724.946 675.577 720.665 636.114C720.635 635.831 720.559 635.538 720.45 635.276C680.602 539.476 633.125 522.548 577.476 494.723C451.271 446.099 409.931 460.668 354.022 457.572C283.544 460.85 226.178 488.167 149.69 495.816Z"
     fill="#D9D9D9"
     id="path8" />
  <path
     d="M531.358 590.371C393.345 537.127 398.552 528.108 378.242 459.389C377.878 458.157 378.72 456.861 380.003 456.783C414.143 454.698 478.21 453.477 481.129 464.257C481.16 464.375 481.196 464.495 481.242 464.608L532.161 589.616C532.473 590.382 532.129 590.669 531.358 590.371Z"
     fill="#7BD7FF"
     id="path10" />
  <path
     d="M816.774 290.391C771.974 210.078 705.32 120.478 488.422 94.2538C585.671 102.449 642.491 70.7707 716.247 57.6584C772.725 47.6179 810.765 47.2779 861.575 57.6584C912.384 68.039 870.862 98.6342 850.101 109.015L849.893 109.119C829.021 119.553 781.38 143.369 816.774 290.391Z"
     fill="#7BD7FF"
     id="path12" />
  <path
     d="M487.876 386.53C550.011 435.749 582.374 474.578 775.252 449.968C687.227 367.389 683.991 351.53 487.876 386.53Z"
     fill="#7BD7FF"
     id="path14" />
  <circle
     cx="299.934"
     cy="329.728"
     r="39.3367"
     fill="#333333"
     id="circle16" />
  <circle
     cx="304.305"
     cy="323.172"
     r="17.483"
     fill="#ECECEC"
     id="circle18" />
</svg>
